HIERARCHY
ROOT root     
{
	OFFSET 0.0000 0.0000 0.0000
	CHANNELS 6 Xposition Yposition Zposition Zrotation Yrotation Xrotation
	JOINT pelvis   
	{
		OFFSET 0.0000 0.0000 0.0000
		CHANNELS 3 Zrotation Yrotation Xrotation
		JOINT thorax   
		{
			OFFSET 0.0000 23.0750 -5.0000
			CHANNELS 3 Zrotation Yrotation Xrotation
			JOINT rclavicle
			{
				OFFSET 0.0000 28.0009 0.0000
				CHANNELS 3 Zrotation Yrotation Xrotation
				JOINT rhumerus 
				{
					OFFSET -18.5725 5.5939 0.0000
					CHANNELS 3 Zrotation Yrotation Xrotation
					JOINT rradius  
					{
						OFFSET -24.8459 0.0000 0.0000
						CHANNELS 3 Zrotation Yrotation Xrotation
						JOINT rhand    
						{
							OFFSET -24.5477 0.0000 0.0000
							CHANNELS 3 Zrotation Yrotation Xrotation
							End Site
							{
								OFFSET -8.1826 0.0000 0.0000
							}
						}
					}
				}
			}
			JOINT lclavicle
			{
				OFFSET 0.0000 28.0009 0.0000
				CHANNELS 3 Zrotation Yrotation Xrotation
				JOINT lhumerus 
				{
					OFFSET 18.5725 5.5939 0.0000
					CHANNELS 3 Zrotation Yrotation Xrotation
					JOINT lradius  
					{
						OFFSET 24.8459 0.0000 0.0000
						CHANNELS 3 Zrotation Yrotation Xrotation
						JOINT lhand    
						{
							OFFSET 24.5477 0.0000 0.0000
							CHANNELS 3 Zrotation Yrotation Xrotation
							End Site
							{
								OFFSET 8.1826 0.0000 0.0000
							}
						}
					}
				}
			}
			JOINT head     
			{
				OFFSET 0.0000 35.2030 0.0000
				CHANNELS 3 Zrotation Yrotation Xrotation
				End Site
				{
					OFFSET 0.0000 11.7343 0.0000
				}
			}
		}
		JOINT rfemur   
		{
			OFFSET -8.2817 0.0000 0.0000
			CHANNELS 3 Zrotation Yrotation Xrotation
			JOINT rtibia   
			{
				OFFSET 0.0000 -43.3627 0.0000
				CHANNELS 3 Zrotation Yrotation Xrotation
				JOINT rfoot    
				{
					OFFSET 0.0000 -38.2947 0.0000
					CHANNELS 3 Zrotation Yrotation Xrotation
					JOINT rtoes    
					{
						OFFSET 0.0000 0.0000 16.6054
						CHANNELS 3 Zrotation Yrotation Xrotation
						End Site
						{
							OFFSET 0.0000 0.0000 5.5351
						}
					}
				}
			}
		}
		JOINT lfemur   
		{
			OFFSET 8.2817 0.0000 0.0000
			CHANNELS 3 Zrotation Yrotation Xrotation
			JOINT ltibia   
			{
				OFFSET 0.0000 -43.3627 0.0000
				CHANNELS 3 Zrotation Yrotation Xrotation
				JOINT lfoot    
				{
					OFFSET 0.0000 -38.2947 0.0000
					CHANNELS 3 Zrotation Yrotation Xrotation
					JOINT ltoes    
					{
						OFFSET 0.0000 0.0000 16.6054
						CHANNELS 3 Zrotation Yrotation Xrotation
						End Site
						{
							OFFSET 0.0000 0.0000 5.5351
						}
					}
				}
			}
		}
	}
}
MOTION
Frames: 9
Frame Time: .0333333
89.797 82.277 7.3138 123.404 -87.0876 -93.6473 0 -0 0 -0.744702 -6.43745 -1.01329 24.6429 -8.91425 4.2174e-05 62.7725 14.0879 -18.6382 -0 45.7012 -0 -18.0036 14.7687 -2.35228 -20.5649 10.0675 -1.11568e-05 -60.6888 -0.683733 -15.0521 0 -47.1776 0 27.4698 -7.35907 -1.80104 4.15751 0.158253 -37.7109 0.404157 -7.35462 -49.5036 -0 -0 39.1386 3.00021e-06 -7.96252 -4.82263 0.673694 -2.02334e-06 -56.7361 -5.0341 4.63229 -49.2215 -0 -0 38.1749 -4.02272e-06 16.6946 -6.21592 -1.85987 -8.9661e-06 -37.9078 
90.042 81.843 7.3744 121.128 -86.9909 -90.7048 0 -0 0 -0.811505 -6.48703 -0.8574 24.7481 -9.01064 -6.41149e-06 62.9743 13.7636 -18.4863 -0 44.4232 -0 -18.0676 14.6269 -2.33789 -20.5883 10.0939 1.87776e-05 -60.8472 -0.504813 -14.7166 0 -45.9876 0 27.4223 -7.33257 -1.79133 4.15663 0.188879 -38.4889 0.476585 -7.63636 -51.2626 -0 -0 41.0146 8.63859e-07 -7.79074 -5.61945 0.767604 2.70642e-06 -56.5729 -5.28297 4.50111 -50.8951 -0 -0 39.8938 -2.03967e-05 16.6519 -6.91745 -2.06309 8.14196e-06 -37.6048 
90.285 81.386 7.4318 118.644 -86.9087 -87.5578 0 -0 0 -0.873312 -6.55419 -0.699413 24.8476 -9.10297 -4.81187e-05 63.1215 13.4261 -18.3383 -3.03881e-07 43.1158 -7.69171e-07 -18.0638 14.4934 -2.31586 -20.6037 10.102 2.73296e-06 -60.9771 -0.323562 -14.4425 0 -44.7652 0 27.359 -7.27654 -1.77333 4.16722 0.221369 -39.2407 0.554337 -7.91454 -53.0198 -0 -0 42.8989 5.73674e-06 -7.64806 -6.41426 0.859509 -5.36117e-06 -56.4283 -5.52435 4.35504 -52.5732 -0 -0 41.631 -4.39648e-05 16.6049 -7.61999 -2.26439 -6.33405e-06 -37.348 
90.525 80.91 7.4865 115.967 -86.8065 -84.2225 0 -0 0 -0.930991 -6.63867 -0.539292 24.9422 -9.19555 8.14464e-05 63.2206 13.0833 -18.1975 -2.88691e-07 41.7804 -7.56388e-07 -17.9956 14.3692 -2.28703 -20.6143 10.1053 -1.85281e-05 -61.0807 -0.154694 -14.2234 0 -43.5113 0 27.2787 -7.19296 -1.7476 4.18763 0.256713 -39.964 0.631597 -8.18413 -54.772 -0 -0 44.7873 7.00637e-06 -7.54196 -7.20234 0.951005 3.32659e-07 -56.3035 -5.75697 4.19072 -54.2506 -0 -0 43.3758 1.95656e-05 16.5586 -8.31831 -2.46296 2.69578e-05 -37.1352 
90.761 80.413 7.5384 113.132 -86.7325 -80.7339 0 -0 0 -0.982991 -6.73748 -0.376998 25.0352 -9.28262 -8.55507e-06 63.2806 12.728 -18.083 -0 40.4284 -0 -17.8657 14.2554 -2.25201 -20.6214 10.0997 3.2633e-05 -61.159 0.00757563 -14.0674 0 -42.236 0 27.1824 -7.08345 -1.7146 4.21453 0.2944 -40.6554 0.704094 -8.43907 -56.5126 -0 -0 46.6769 -2.89253e-06 -7.47884 -7.97878 1.0439 -2.43049e-07 -56.1999 -5.9786 4.00725 -55.9223 -0 -0 45.1244 5.77295e-05 16.5163 -9.00899 -2.65849 1.38181e-05 -36.9673 
90.993 79.9 7.588 110.22 -86.6315 -77.177 0 -0 0 -1.028 -6.84771 -0.212205 25.1254 -9.36241 -1.02714e-05 63.305 12.3625 -18.0114 -0 39.061 -0 -17.6885 14.1526 -2.21315 -20.6302 10.0908 -6.69358e-05 -61.2152 0.158568 -13.9718 0 -40.9416 0 27.071 -6.95402 -1.67603 4.24374 0.334132 -41.3135 0.767913 -8.67409 -58.2415 -0 -0 48.5599 5.55591e-06 -7.46223 -8.7405 1.14029 -1.82017e-06 -56.1131 -6.1869 3.80454 -57.5859 -0 -0 46.8703 3.85916e-05 16.4826 -9.68987 -2.85114 1.27142e-05 -36.8381 
91.219 79.369 7.6342 107.292 -86.542 -73.6138 0 -0 0 -1.06021 -6.96078 -0.0428001 25.2147 -9.44212 4.53156e-05 63.3017 11.9992 -17.9974 -0 37.678 -0 -17.4793 14.0629 -2.17254 -20.6442 10.0888 -4.81967e-06 -61.2508 0.282194 -13.935 0 -39.6247 0 26.9462 -6.8148 -1.63451 4.27088 0.373517 -41.9392 0.823113 -8.88114 -59.9456 -0 -0 50.4284 -1.7993e-06 -7.49403 -9.48601 1.242 8.15113e-06 -56.0357 -6.3778 3.59004 -59.2352 -0 -0 48.6101 -6.80718e-05 16.4574 -10.3629 -3.04177 -4.91346e-06 -36.7342 
91.438 78.825 7.6791 104.391 -86.4478 -70.0868 0 -0 0 -1.08309 -7.08035 0.127899 25.2991 -9.48598 -3.70876e-05 63.2755 11.5966 -18.0794 -0 36.3067 -0 -17.2552 13.9848 -2.13221 -20.6712 10.062 -5.89482e-05 -61.2604 0.42518 -13.9803 0 -38.3229 0 26.8167 -6.66101 -1.58963 4.29193 0.413606 -42.5285 0.863052 -9.06422 -61.6282 -0 -0 52.2803 -4.39943e-06 -7.57029 -10.2137 1.34998 -2.17855e-05 -55.9669 -6.55051 3.35442 -60.8646 -0 -0 50.3377 -7.90606e-06 16.4489 -11.0243 -3.23128 1.69191e-05 -36.6572 
91.722 78.277 7.6622 88.0901 -86.4715 -52.8243 0 -0 0 -0.278807 -7.89212 -0.204905 25.1516 -9.50543 -1.54112e-05 63.2095 11.0329 -18.2069 -0 34.9716 -0 -17.0415 13.8985 -2.09232 -20.9298 10.0662 2.96771e-05 -61.2394 0.696621 -14.0709 0 -37.0718 0 26.6854 -6.49516 -1.54204 4.07813 0.464989 -42.9652 1.51576 -9.83246 -63.5777 -0 -0 54.0549 2.06411e-06 -7.71755 -11.0053 1.48187 -1.77949e-05 -55.7491 -6.0858 2.34716 -62.969 -0 -0 52.0895 4.2287e-05 16.5344 -11.3908 -3.35554 1.72577e-05 -36.8839 
